<svg width="60" height="60" viewBox="0 0 60 60" fill="none" xmlns="http://www.w3.org/2000/svg">
<g id="Frame" clip-path="url(#clip0_170_7062)">
<g id="Group">
<path id="Vector" d="M30 59.9704C46.4119 59.9704 60 46.3596 60 29.9852C60 13.5816 46.4413 0 30.0294 0C28.4708 0 27.706 0.940714 27.706 2.46937V13.8461C27.706 15.1396 28.5882 16.1391 29.8529 16.1391C31.1472 16.1391 32.0294 15.1396 32.0294 13.8461V2.41058L29.9706 4.99755C43.9119 4.99755 54.9706 16.1097 54.9706 29.9852C54.9706 43.8609 43.8825 54.9731 30 54.9731C16.1177 54.9731 4.9706 43.8609 5.00002 29.9852C5.02943 23.7824 7.2353 18.1675 10.9412 13.8461C11.8236 12.6996 11.8824 11.318 10.9118 10.2891C9.9412 9.26016 8.32356 9.34834 7.2353 10.6418C2.76471 15.8745 0 22.6653 0 29.9852C0 46.3596 13.6177 59.9704 30 59.9704ZM34.7059 34.2184C37.0295 31.7786 36.5589 28.5154 33.7647 26.5753L18.2059 15.6982C16.7353 14.6693 15.2059 16.2273 16.2353 17.6678L27.0884 33.219C29.0588 36.0118 32.3236 36.5115 34.7059 34.2184Z" fill="black" fill-opacity="0.85"/>
</g>
</g>
<defs>
<clipPath id="clip0_170_7062">
<rect width="60" height="60" fill="white"/>
</clipPath>
</defs>
</svg>
